<?xml version="1.0" encoding="UTF-8" standalone="no"?>
<!DOCTYPE svg PUBLIC "-//W3C//DTD SVG 1.1//EN" "http://www.w3.org/Graphics/SVG/1.1/DTD/svg11.dtd">
<svg width="100%" height="100%" viewBox="0 0 1000 300" version="1.1" xmlns="http://www.w3.org/2000/svg" xmlns:xlink="http://www.w3.org/1999/xlink" xml:space="preserve" xmlns:serif="http://www.serif.com/" style="fill-rule:evenodd;clip-rule:evenodd;stroke-linejoin:round;stroke-miterlimit:2;">
    <g transform="matrix(3.61993,0,0,3.61993,-597.803,-346.027)">
        <g transform="matrix(50,0,0,50,169.291,152.756)">
            <path d="M0.555,-0.05C0.555,-0.087 0.51,-0.106 0.479,-0.106C0.432,-0.106 0.386,-0.055 0.34,-0.055C0.327,-0.055 0.317,-0.059 0.307,-0.066C0.247,-0.109 0.237,-0.227 0.237,-0.295C0.237,-0.374 0.252,-0.459 0.29,-0.529C0.302,-0.551 0.332,-0.594 0.359,-0.594C0.401,-0.594 0.424,-0.554 0.479,-0.554C0.509,-0.554 0.555,-0.572 0.555,-0.608C0.555,-0.633 0.533,-0.651 0.514,-0.662C0.468,-0.689 0.416,-0.707 0.362,-0.707C0.151,-0.707 0.075,-0.469 0.075,-0.294C0.075,-0.128 0.145,0.057 0.34,0.057C0.384,0.057 0.427,0.047 0.467,0.028C0.5,0.013 0.555,-0.007 0.555,-0.05Z" style="fill:rgb(167,167,167);fill-rule:nonzero;"/>
        </g>
        <g transform="matrix(50,0,0,50,200.791,152.756)">
            <path d="M0.06,-0.352C0.06,-0.186 0.162,-0.043 0.338,-0.043C0.515,-0.043 0.642,-0.201 0.642,-0.371C0.642,-0.503 0.565,-0.602 0.438,-0.635C0.395,-0.646 0.351,-0.656 0.307,-0.656C0.143,-0.656 0.06,-0.498 0.06,-0.352ZM0.485,-0.373C0.485,-0.295 0.452,-0.21 0.384,-0.167C0.371,-0.158 0.356,-0.152 0.34,-0.152C0.28,-0.152 0.234,-0.239 0.224,-0.29C0.22,-0.311 0.219,-0.334 0.219,-0.356C0.219,-0.413 0.234,-0.497 0.284,-0.533C0.289,-0.537 0.295,-0.538 0.301,-0.538C0.314,-0.538 0.326,-0.534 0.339,-0.534C0.36,-0.534 0.381,-0.532 0.4,-0.525C0.461,-0.502 0.485,-0.433 0.485,-0.373Z" style="fill:rgb(167,167,167);fill-rule:nonzero;"/>
        </g>
        <g transform="matrix(50,0,0,50,235.891,152.756)">
            <path d="M0.248,-0.119L0.248,-0.125C0.253,-0.214 0.266,-0.301 0.266,-0.391C0.266,-0.439 0.256,-0.6 0.221,-0.63C0.205,-0.644 0.182,-0.649 0.161,-0.649C0.126,-0.649 0.077,-0.631 0.077,-0.589C0.077,-0.584 0.078,-0.579 0.079,-0.574C0.096,-0.509 0.101,-0.447 0.101,-0.38C0.101,-0.296 0.093,-0.211 0.084,-0.127C0.082,-0.104 0.075,-0.082 0.075,-0.059C0.075,-0.041 0.079,-0.025 0.093,-0.013C0.121,0.011 0.159,0.008 0.193,0.01C0.249,0.013 0.305,0.026 0.361,0.026C0.397,0.026 0.457,0.012 0.457,-0.034C0.457,-0.13 0.248,-0.068 0.248,-0.119Z" style="fill:rgb(167,167,167);fill-rule:nonzero;"/>
        </g>
        <g transform="matrix(50,0,0,50,261.241,152.756)">
            <path d="M0.347,-0.607C0.306,-0.607 0.262,-0.607 0.223,-0.595C0.114,-0.561 0.06,-0.45 0.06,-0.342C0.06,-0.192 0.155,-0.086 0.307,-0.086C0.46,-0.086 0.614,-0.202 0.614,-0.363C0.614,-0.509 0.485,-0.607 0.347,-0.607ZM0.298,-0.199C0.244,-0.199 0.222,-0.304 0.222,-0.34C0.222,-0.429 0.244,-0.491 0.338,-0.491C0.42,-0.491 0.453,-0.418 0.453,-0.354C0.453,-0.274 0.378,-0.199 0.298,-0.199Z" style="fill:rgb(167,167,167);fill-rule:nonzero;"/>
        </g>
        <g transform="matrix(50,0,0,50,294.941,152.756)">
            <path d="M0.396,-0.275C0.396,-0.281 0.4,-0.284 0.405,-0.287C0.474,-0.327 0.538,-0.373 0.567,-0.451C0.574,-0.47 0.578,-0.491 0.578,-0.512C0.578,-0.639 0.453,-0.7 0.341,-0.7C0.285,-0.7 0.093,-0.664 0.093,-0.59C0.093,-0.567 0.118,-0.561 0.118,-0.539C0.118,-0.534 0.117,-0.53 0.117,-0.526C0.107,-0.407 0.1,-0.287 0.093,-0.168C0.091,-0.142 0.079,-0.13 0.079,-0.089C0.079,-0.065 0.075,-0.041 0.075,-0.017C0.075,0.037 0.098,0.067 0.154,0.067C0.202,0.067 0.236,0.047 0.24,-0.003L0.252,-0.161C0.253,-0.169 0.251,-0.2 0.263,-0.2C0.289,-0.2 0.416,-0.05 0.489,-0.043C0.494,-0.043 0.498,-0.042 0.503,-0.042C0.535,-0.042 0.581,-0.056 0.581,-0.096C0.581,-0.112 0.572,-0.128 0.56,-0.138C0.549,-0.148 0.534,-0.154 0.522,-0.163C0.506,-0.175 0.396,-0.265 0.396,-0.275ZM0.267,-0.381C0.267,-0.437 0.275,-0.495 0.279,-0.551C0.28,-0.564 0.288,-0.577 0.301,-0.581C0.313,-0.584 0.327,-0.586 0.339,-0.586C0.382,-0.586 0.419,-0.564 0.419,-0.517C0.419,-0.446 0.345,-0.392 0.286,-0.367C0.284,-0.366 0.281,-0.365 0.279,-0.365C0.27,-0.365 0.267,-0.373 0.267,-0.381Z" style="fill:rgb(167,167,167);fill-rule:nonzero;"/>
        </g>
        <g transform="matrix(50,0,0,50,327.741,152.756)">
            <path d="M0.448,-0.083C0.448,-0.119 0.4,-0.137 0.37,-0.137C0.33,-0.137 0.297,-0.103 0.257,-0.103C0.239,-0.103 0.242,-0.12 0.242,-0.133L0.242,-0.139C0.237,-0.187 0.233,-0.235 0.233,-0.284C0.233,-0.315 0.274,-0.307 0.294,-0.307L0.331,-0.307C0.37,-0.307 0.445,-0.311 0.445,-0.366C0.445,-0.406 0.404,-0.421 0.371,-0.421C0.35,-0.421 0.33,-0.419 0.31,-0.419L0.258,-0.419C0.245,-0.419 0.237,-0.429 0.237,-0.441C0.237,-0.466 0.243,-0.54 0.247,-0.564C0.249,-0.577 0.259,-0.585 0.272,-0.586C0.318,-0.589 0.463,-0.578 0.463,-0.646C0.463,-0.684 0.424,-0.697 0.393,-0.697C0.35,-0.697 0.31,-0.699 0.27,-0.699C0.251,-0.699 0.232,-0.7 0.214,-0.7C0.194,-0.7 0.175,-0.699 0.156,-0.693C0.121,-0.682 0.101,-0.655 0.096,-0.619C0.083,-0.517 0.075,-0.412 0.075,-0.309C0.075,-0.269 0.076,-0.229 0.079,-0.189C0.084,-0.12 0.077,0.009 0.176,0.009L0.221,0.009C0.284,0.009 0.408,0.002 0.442,-0.061C0.446,-0.068 0.448,-0.075 0.448,-0.083Z" style="fill:rgb(167,167,167);fill-rule:nonzero;"/>
        </g>
        <g transform="matrix(50,0,0,50,354.641,152.756)">
            <path d="M0.329,-0.757C0.304,-0.757 0.281,-0.75 0.258,-0.742C0.157,-0.708 0.094,-0.639 0.094,-0.529C0.094,-0.35 0.234,-0.178 0.234,-0.026C0.234,0.024 0.199,0.016 0.163,0.016C0.126,0.016 0.075,0.029 0.075,0.075C0.075,0.13 0.155,0.133 0.194,0.133C0.304,0.133 0.399,0.082 0.399,-0.039C0.399,-0.201 0.258,-0.36 0.258,-0.529C0.258,-0.668 0.366,-0.616 0.402,-0.676C0.43,-0.722 0.369,-0.757 0.329,-0.757Z" style="fill:rgb(167,167,167);fill-rule:nonzero;"/>
        </g>
        <g transform="matrix(50,0,0,50,378.891,152.756)">
            <path d="M0.284,-0.533C0.284,-0.567 0.356,-0.559 0.38,-0.567C0.403,-0.575 0.427,-0.595 0.427,-0.621C0.427,-0.663 0.378,-0.674 0.345,-0.674C0.252,-0.674 0.126,-0.644 0.126,-0.528C0.126,-0.414 0.241,-0.275 0.241,-0.182C0.241,-0.113 0.143,-0.145 0.102,-0.116C0.087,-0.105 0.075,-0.088 0.075,-0.069C0.075,-0.029 0.124,-0.018 0.156,-0.018C0.266,-0.018 0.401,-0.057 0.401,-0.19C0.401,-0.306 0.284,-0.463 0.284,-0.533L0.284,-0.533Z" style="fill:rgb(167,167,167);fill-rule:nonzero;"/>
        </g>
        <g transform="matrix(50,0,0,50,403.991,152.756)">
            <path d="M0.389,-0.654C0.374,-0.661 0.332,-0.679 0.296,-0.631C0.224,-0.535 0.148,-0.381 0.108,-0.239C0.101,-0.212 0.06,-0.075 0.06,-0.06C0.06,-0.021 0.108,-0.005 0.14,-0.005C0.217,-0.005 0.221,-0.058 0.237,-0.117L0.256,-0.186C0.261,-0.203 0.27,-0.198 0.284,-0.198C0.321,-0.198 0.353,-0.203 0.384,-0.203C0.396,-0.203 0.406,-0.196 0.41,-0.185C0.415,-0.17 0.419,-0.155 0.426,-0.14C0.441,-0.106 0.471,-0.088 0.508,-0.088C0.539,-0.088 0.59,-0.107 0.59,-0.144C0.59,-0.164 0.575,-0.185 0.568,-0.203C0.528,-0.303 0.489,-0.605 0.389,-0.654ZM0.315,-0.312C0.306,-0.312 0.299,-0.317 0.299,-0.326C0.299,-0.341 0.336,-0.43 0.345,-0.447C0.347,-0.45 0.349,-0.455 0.353,-0.455C0.358,-0.455 0.359,-0.448 0.36,-0.445C0.367,-0.415 0.371,-0.384 0.375,-0.354C0.376,-0.345 0.38,-0.337 0.38,-0.328C0.38,-0.321 0.377,-0.318 0.371,-0.317C0.354,-0.313 0.332,-0.312 0.315,-0.312Z" style="fill:rgb(167,167,167);fill-rule:nonzero;"/>
        </g>
    </g>
</svg>
